<svg xmlns="http://www.w3.org/2000/svg" width="18" height="18" viewBox="0 0 18 18">
  <g id="Layer_2" data-name="Layer 2" transform="translate(-0.895 -0.895)">
    <g id="calendar" transform="translate(0.895 0.895)">
      <rect id="Rectangle_460" data-name="Rectangle 460" width="18" height="18" fill="#90919b" opacity="0"/>
      <path id="Path_2257" data-name="Path 2257" d="M14.951,3.582h-.8V2.791a.8.8,0,0,0-1.594,0v.791H7.781V2.791a.8.8,0,0,0-1.594,0v.791h-.8A2.382,2.382,0,0,0,3,5.956v9.495a2.382,2.382,0,0,0,2.39,2.374h9.561a2.382,2.382,0,0,0,2.39-2.374V5.956a2.382,2.382,0,0,0-2.39-2.374ZM5.39,5.165h.8v.791a.8.8,0,0,0,1.594,0V5.165h4.781v.791a.8.8,0,0,0,1.594,0V5.165h.8a.794.794,0,0,1,.8.791V9.121H4.594V5.956A.794.794,0,0,1,5.39,5.165Zm9.561,11.077H5.39a.794.794,0,0,1-.8-.791V10.7H15.748v4.747A.794.794,0,0,1,14.951,16.242Z" transform="translate(-1.639 -1.38)" fill="#90919b"/>
      <circle id="Ellipse_343" data-name="Ellipse 343" cx="1" cy="1" r="1" transform="translate(4.267 10.667)" fill="#90919b"/>
      <path id="Path_2258" data-name="Path 2258" d="M14.706,15H11.741a.741.741,0,0,0,0,1.482h2.965a.741.741,0,0,0,0-1.482Z" transform="translate(-3.129 -4.084)" fill="#90919b"/>
    </g>
  </g>
</svg>
