<svg xmlns="http://www.w3.org/2000/svg" width="16" height="16" viewBox="0 0 16 16">
  <g id="Layer_2" data-name="Layer 2" transform="translate(-0.868 -0.868)">
    <g id="edit" transform="translate(0.427 0.427)">
      <rect id="Rectangle_446" data-name="Rectangle 446" width="16" height="16" transform="translate(0.44 0.44)" fill="#d0d1d6" opacity="0"/>
      <path id="Path_2220" data-name="Path 2220" d="M15.294,6.465l-2.01-2.01A1.467,1.467,0,0,0,11.333,4.4l-6.6,6.6a1.467,1.467,0,0,0-.418.887L4,14.951a.732.732,0,0,0,.733.8H4.8l3.058-.279a1.467,1.467,0,0,0,.887-.418l6.6-6.6a1.408,1.408,0,0,0-.051-1.988ZM7.725,14l-2.2.205.2-2.2L9.866,7.917l1.98,1.98ZM12.8,8.915,10.835,6.949l1.43-1.467,2,2Z" transform="translate(-1.426 -1.442)" fill="#d0d1d6"/>
    </g>
  </g>
</svg>
