<svg xmlns="http://www.w3.org/2000/svg" width="18" height="18" viewBox="0 0 18 18">
  <g id="Layer_2" data-name="Layer 2" transform="translate(0.001)">
    <g id="edit">
      <rect id="Rectangle_228" data-name="Rectangle 228" width="18" height="18" transform="translate(-0.001)" fill="#fea101" opacity="0"/>
      <path id="Path_1954" data-name="Path 1954" d="M15.6,6.53,13.533,4.466a1.506,1.506,0,0,0-2-.053L4.752,11.191a1.506,1.506,0,0,0-.429.911L4,15.243a.751.751,0,0,0,.753.821H4.82l3.14-.286a1.506,1.506,0,0,0,.911-.429L15.649,8.57A1.446,1.446,0,0,0,15.6,6.53Zm-2.56,2.515L11.018,7.027,12.486,5.52l2.056,2.056Z" transform="translate(-1.024 -1.039)" fill="#fea101"/>
    </g>
  </g>
</svg>
