<svg xmlns="http://www.w3.org/2000/svg" width="40" height="40" viewBox="0 0 40 40">
  <g id="Group_1541" data-name="Group 1541" transform="translate(-102.815 -102.814)">
    <rect id="Rectangle_456" data-name="Rectangle 456" width="40" height="40" transform="translate(102.815 102.814)" fill="none"/>
    <g id="Group_1310" data-name="Group 1310" transform="translate(108.569 108.579)">
      <path id="Path_2252" data-name="Path 2252" d="M292.11,245.2a1.416,1.416,0,0,0,1.417-1.415h0a1.416,1.416,0,0,0-1.417-1.415h-7.868a1.416,1.416,0,0,0-1.417,1.415h0a1.416,1.416,0,0,0,1.417,1.415h1.836a3.048,3.048,0,0,1,2.656,1.547h-4.49a1.416,1.416,0,0,0-1.417,1.415h0a1.416,1.416,0,0,0,1.417,1.415h4.5a2.969,2.969,0,0,1-2.6,1.547h-1.9a1.414,1.414,0,0,0-1.008.414h0a1.413,1.413,0,0,0,0,2l5.562,5.554a1.419,1.419,0,0,0,2,0h0a1.413,1.413,0,0,0,0-2l-3.3-3.3a5.815,5.815,0,0,0,4.271-4.215h.348a1.416,1.416,0,0,0,1.417-1.415h0a1.416,1.416,0,0,0-1.417-1.415h-.351a5.694,5.694,0,0,0-.651-1.547Z" transform="translate(-274.231 -237.005)" fill="#405cd2"/>
      <g id="Group_1308" data-name="Group 1308" transform="translate(23.308 0)">
        <path id="Path_2253" data-name="Path 2253" d="M468.719,197.264h0a1.044,1.044,0,0,1-1.044-1.044V176a.879.879,0,0,1,1.5-.622l2.764,2.764a1.044,1.044,0,0,1,0,1.477h0a1.044,1.044,0,0,1-1.477,0l-.7-.7v17.3A1.044,1.044,0,0,1,468.719,197.264Z" transform="translate(-467.675 -175.118)" fill="#d4dcff"/>
      </g>
      <g id="Group_1309" data-name="Group 1309" transform="translate(0 5.713)">
        <path id="Path_2254" data-name="Path 2254" d="M178.528,247.118h0a1.044,1.044,0,0,1,1.044,1.044v20.221a.879.879,0,0,1-1.5.622l-2.764-2.764a1.044,1.044,0,0,1,0-1.477h0a1.044,1.044,0,0,1,1.477,0l.7.7v-17.3A1.044,1.044,0,0,1,178.528,247.118Z" transform="translate(-175.002 -247.118)" fill="#d4dcff"/>
      </g>
    </g>
  </g>
</svg>
